<svg width="36" height="36" viewBox="0 0 36 36" fill="none" xmlns="http://www.w3.org/2000/svg">
<g clip-path="url(#clip0_2667_266)">
<path d="M6.75 13.5C7.164 13.5 7.5 13.164 7.5 12.75V10.5H25.173L24.9 9.5445C24.8055 9.21 24.699 8.88 24.582 8.5515L22.4175 2.4885C21.8865 0.999 20.4675 0 18.8865 0H6.615C5.034 0 3.615 1.0005 3.084 2.4885L0.918 8.5515C0.309 10.257 0 12.039 0 13.848V19.5H3V22.5H7.5V18H1.5V13.848C1.5 12.7155 1.6335 11.595 1.899 10.5H6V12.75C6 13.164 6.336 13.5 6.75 13.5ZM6 19.5V21H4.5V19.5H6ZM4.4955 2.9925C4.815 2.1 5.667 1.5 6.615 1.5H18.885C19.833 1.5 20.685 2.1 21.0045 2.9925L23.1495 9H2.349L4.4955 2.9925ZM36 27.348C36 25.539 35.691 23.757 35.082 22.0515L32.9175 15.9885C32.3865 14.499 30.9675 13.5 29.3865 13.5H17.115C15.534 13.5 14.115 14.5005 13.584 15.9885L11.4195 22.0515C10.8105 23.757 10.5015 25.539 10.5015 27.348V33H13.5015V36H18.0015V33H28.5015V36H33.0015V33H36.0015L36 27.348ZM14.9955 16.4925C15.315 15.6 16.167 15 17.115 15H29.3865C30.3345 15 31.1865 15.6 31.506 16.4925L33.651 22.5H12.849L14.9955 16.4925ZM16.5 34.5H15V33H16.5V34.5ZM31.5 34.5H30V33H31.5V34.5ZM34.5 31.5H12V27.348C12 26.2155 12.1335 25.095 12.399 24H16.5V26.25C16.5 26.664 16.836 27 17.25 27C17.664 27 18 26.664 18 26.25V24H28.5V26.25C28.5 26.664 28.836 27 29.25 27C29.664 27 30 26.664 30 26.25V24H34.101C34.3665 25.095 34.5 26.2155 34.5 27.348V31.5Z" fill="url(#paint0_linear_2667_266)"/>
<path d="M31 10C33.7614 10 36 7.76142 36 5C36 2.23858 33.7614 0 31 0C28.2386 0 26 2.23858 26 5C26 7.76142 28.2386 10 31 10Z" fill="#018706"/>
<path fill-rule="evenodd" clip-rule="evenodd" d="M29.0054 4.64824C28.8212 4.52525 28.5753 4.55321 28.4229 4.71416C28.2709 4.87489 28.2565 5.12222 28.3895 5.29931L29.7535 7.11795C29.8358 7.22752 29.9631 7.29435 30.1002 7.29958C30.237 7.30458 30.3691 7.24775 30.4594 7.14454L33.642 3.50727C33.7991 3.3279 33.7906 3.05761 33.6229 2.88802C33.4551 2.71843 33.185 2.70752 33.0039 2.86256L30.0829 5.36637L29.0054 4.64824Z" fill="#FAFAFA"/>
</g>
<defs>
<linearGradient id="paint0_linear_2667_266" x1="17.4227" y1="-6.23709e-08" x2="20.5394" y2="35.7426" gradientUnits="userSpaceOnUse">
<stop stop-color="#A60D4F"/>
<stop offset="1" stop-color="#660033"/>
</linearGradient>
<clipPath id="clip0_2667_266">
<rect width="36" height="36" fill="white"/>
</clipPath>
</defs>
</svg>
