<svg width="36" height="36" viewBox="0 0 36 36" fill="none" xmlns="http://www.w3.org/2000/svg">
<path d="M18 36C17.5338 36 17.0867 35.8148 16.757 35.4851C16.4274 35.1555 16.2422 34.7084 16.2422 34.2422V1.75781C16.2422 1.29161 16.4274 0.844505 16.757 0.514851C17.0867 0.185198 17.5338 0 18 0C18.4662 0 18.9133 0.185198 19.243 0.514851C19.5726 0.844505 19.7578 1.29161 19.7578 1.75781V34.2422C19.7578 34.7084 19.5726 35.1555 19.243 35.4851C18.9133 35.8148 18.4662 36 18 36Z" fill="url(#paint0_linear_2669_320)"/>
<path d="M34.2422 19.7578H1.75781C1.29161 19.7578 0.844505 19.5726 0.514851 19.243C0.185198 18.9133 0 18.4662 0 18C0 17.5338 0.185198 17.0867 0.514851 16.757C0.844505 16.4274 1.29161 16.2422 1.75781 16.2422H34.2422C34.7084 16.2422 35.1555 16.4274 35.4851 16.757C35.8148 17.0867 36 17.5338 36 18C36 18.4662 35.8148 18.9133 35.4851 19.243C35.1555 19.5726 34.7084 19.7578 34.2422 19.7578Z" fill="url(#paint1_linear_2669_320)"/>
<defs>
<linearGradient id="paint0_linear_2669_320" x1="17.9436" y1="-6.23709e-08" x2="35.8359" y2="20.0378" gradientUnits="userSpaceOnUse">
<stop stop-color="#A60D4F"/>
<stop offset="1" stop-color="#660033"/>
</linearGradient>
<linearGradient id="paint1_linear_2669_320" x1="17.422" y1="16.2422" x2="17.452" y2="19.759" gradientUnits="userSpaceOnUse">
<stop stop-color="#A60D4F"/>
<stop offset="1" stop-color="#660033"/>
</linearGradient>
</defs>
</svg>
