<svg width="21" height="21" viewBox="0 0 21 21" fill="none" xmlns="http://www.w3.org/2000/svg">
<g clip-path="url(#clip0_2635_917)">
<path d="M15.7317 20.4391C15.8 20.671 15.6678 20.9134 15.4351 20.9816C15.394 20.9939 15.3528 21 15.3117 21C15.1218 21 14.9477 20.8766 14.8926 20.6859C14.3405 18.8099 12.5344 17.5 10.4992 17.5C8.46395 17.5 6.65795 18.8099 6.10583 20.6859C6.03845 20.9186 5.79345 21.0499 5.56332 20.9825C5.33057 20.9142 5.19845 20.6719 5.2667 20.44C5.92645 18.1939 8.07808 16.6259 10.4983 16.6259C12.9186 16.6259 15.0711 18.1939 15.7299 20.44L15.7317 20.4391ZM20.9817 12.5641C20.322 10.318 18.1703 8.75 15.7501 8.75C15.5086 8.75 15.3126 8.946 15.3126 9.1875C15.3126 9.429 15.5086 9.625 15.7501 9.625C17.7845 9.625 19.5913 10.9349 20.1435 12.8109C20.1986 13.0025 20.3736 13.125 20.5626 13.125C20.6037 13.125 20.6448 13.1189 20.686 13.1066C20.9187 13.0384 21.05 12.796 20.9817 12.5641ZM5.68758 9.1875C5.68758 8.946 5.49158 8.75 5.25008 8.75C2.82895 8.75 0.677325 10.318 0.0184503 12.5641C-0.0497997 12.796 0.0823253 13.0384 0.315075 13.1066C0.3562 13.1189 0.397325 13.125 0.43845 13.125C0.628325 13.125 0.80245 13.0016 0.857575 12.8109C1.4097 10.9349 3.2157 9.625 5.25095 9.625C5.49245 9.625 5.68758 9.429 5.68758 9.1875ZM10.5001 7.875C12.4303 7.875 14.0001 9.44475 14.0001 11.375C14.0001 13.3053 12.4303 14.875 10.5001 14.875C8.56983 14.875 7.00008 13.3053 7.00008 11.375C7.00008 9.44475 8.56983 7.875 10.5001 7.875ZM7.87508 11.375C7.87508 12.8223 9.05282 14 10.5001 14C11.9473 14 13.1251 12.8223 13.1251 11.375C13.1251 9.92775 11.9473 8.75 10.5001 8.75C9.05282 8.75 7.87508 9.92775 7.87508 11.375ZM12.2501 3.5C12.2501 1.56975 13.8198 0 15.7501 0C17.6803 0 19.2501 1.56975 19.2501 3.5C19.2501 5.43025 17.6803 7 15.7501 7C13.8198 7 12.2501 5.43025 12.2501 3.5ZM13.1251 3.5C13.1251 4.94725 14.3028 6.125 15.7501 6.125C17.1973 6.125 18.3751 4.94725 18.3751 3.5C18.3751 2.05275 17.1973 0.875 15.7501 0.875C14.3028 0.875 13.1251 2.05275 13.1251 3.5ZM1.75008 3.5C1.75008 1.56975 3.31983 0 5.25008 0C7.18033 0 8.75008 1.56975 8.75008 3.5C8.75008 5.43025 7.18033 7 5.25008 7C3.31983 7 1.75008 5.43025 1.75008 3.5ZM2.62508 3.5C2.62508 4.94725 3.80283 6.125 5.25008 6.125C6.69733 6.125 7.87508 4.94725 7.87508 3.5C7.87508 2.05275 6.69733 0.875 5.25008 0.875C3.80283 0.875 2.62508 2.05275 2.62508 3.5Z" fill="#686973"/>
</g>
<defs>
<clipPath id="clip0_2635_917">
<rect width="21" height="21" fill="white"/>
</clipPath>
</defs>
</svg>
