<svg width="16" height="18" viewBox="0 0 16 18" fill="none" xmlns="http://www.w3.org/2000/svg">
<g clip-path="url(#clip0_2635_831)">
<g clip-path="url(#clip1_2635_831)">
<path d="M1.17657 13.1835C1.24429 13.9112 1.81171 14.4581 2.54029 14.5134C3.57914 14.5918 5.31443 14.6801 7.85714 14.6801C10.3999 14.6801 12.1351 14.5918 13.174 14.513C13.9026 14.4581 14.47 13.9112 14.5377 13.1835C14.6234 12.2617 14.7143 10.7882 14.7143 8.68005C14.7143 6.57148 14.6234 5.09848 14.5377 4.17662C14.47 3.44891 13.9026 2.90205 13.174 2.84676C12.1351 2.76834 10.4003 2.68005 7.85714 2.68005C5.314 2.68005 3.57914 2.76834 2.54071 2.84719C1.81214 2.90205 1.24429 3.44891 1.17657 4.17662C1.09086 5.09848 1 6.57148 1 8.68005C1 10.7887 1.09086 12.2617 1.17657 13.1835Z" fill="#676872" fill-opacity="0.2"/>
<path d="M14.7103 7.82462C14.6897 6.16648 14.6126 4.96819 14.5389 4.17662C14.4711 3.44891 13.9033 2.90205 13.1747 2.84676C12.1363 2.76834 10.4014 2.68005 7.85829 2.68005C5.31472 2.68005 3.58029 2.76834 2.54143 2.84719C1.81286 2.90205 1.245 3.44891 1.17729 4.17662C1.104 4.96819 1.02643 6.16648 1.00586 7.82462C2.70172 8.65434 6.42772 10.3944 7.85829 10.3944C9.28886 10.3944 13.0149 8.65434 14.7103 7.82462Z" fill="#676872" fill-opacity="0.2"/>
<path d="M1.17657 13.1835C1.24429 13.9112 1.81171 14.4581 2.54029 14.5134C3.57914 14.5918 5.31443 14.6801 7.85714 14.6801C10.3999 14.6801 12.1351 14.5918 13.174 14.513C13.9026 14.4581 14.47 13.9112 14.5377 13.1835C14.6234 12.2617 14.7143 10.7882 14.7143 8.68005C14.7143 6.57148 14.6234 5.09848 14.5377 4.17662C14.47 3.44891 13.9026 2.90205 13.174 2.84676C12.1351 2.76834 10.4003 2.68005 7.85714 2.68005C5.314 2.68005 3.57914 2.76834 2.54071 2.84719C1.81214 2.90205 1.24429 3.44891 1.17657 4.17662C1.09086 5.09848 1 6.57148 1 8.68005C1 10.7887 1.09086 12.2617 1.17657 13.1835Z" stroke="#686973" stroke-linejoin="round"/>
<path d="M1 7.82263C1 7.82263 5.97829 10.3941 7.85714 10.3941C9.73557 10.3941 14.7143 7.82263 14.7143 7.82263" stroke="#686973" stroke-linecap="round" stroke-linejoin="round"/>
</g>
</g>
<defs>
<clipPath id="clip0_2635_831">
<rect width="16" height="17" fill="white" transform="translate(0 0.180054)"/>
</clipPath>
<clipPath id="clip1_2635_831">
<rect width="16" height="17" fill="white" transform="translate(0 0.180054)"/>
</clipPath>
</defs>
</svg>
