<svg width="36" height="36" viewBox="0 0 36 36" fill="none" xmlns="http://www.w3.org/2000/svg">
<g clip-path="url(#clip0_2667_292)">
<path d="M6.75 13.5C7.164 13.5 7.5 13.164 7.5 12.75V10.5H25.173L24.9 9.5445C24.8055 9.21 24.699 8.88 24.582 8.5515L22.4175 2.4885C21.8865 0.999 20.4675 0 18.8865 0H6.615C5.034 0 3.615 1.0005 3.084 2.4885L0.918 8.5515C0.309 10.257 0 12.039 0 13.848V19.5H3V22.5H7.5V18H1.5V13.848C1.5 12.7155 1.6335 11.595 1.899 10.5H6V12.75C6 13.164 6.336 13.5 6.75 13.5ZM6 19.5V21H4.5V19.5H6ZM4.4955 2.9925C4.815 2.1 5.667 1.5 6.615 1.5H18.885C19.833 1.5 20.685 2.1 21.0045 2.9925L23.1495 9H2.349L4.4955 2.9925ZM36 27.348C36 25.539 35.691 23.757 35.082 22.0515L32.9175 15.9885C32.3865 14.499 30.9675 13.5 29.3865 13.5H17.115C15.534 13.5 14.115 14.5005 13.584 15.9885L11.4195 22.0515C10.8105 23.757 10.5015 25.539 10.5015 27.348V33H13.5015V36H18.0015V33H28.5015V36H33.0015V33H36.0015L36 27.348ZM14.9955 16.4925C15.315 15.6 16.167 15 17.115 15H29.3865C30.3345 15 31.1865 15.6 31.506 16.4925L33.651 22.5H12.849L14.9955 16.4925ZM16.5 34.5H15V33H16.5V34.5ZM31.5 34.5H30V33H31.5V34.5ZM34.5 31.5H12V27.348C12 26.2155 12.1335 25.095 12.399 24H16.5V26.25C16.5 26.664 16.836 27 17.25 27C17.664 27 18 26.664 18 26.25V24H28.5V26.25C28.5 26.664 28.836 27 29.25 27C29.664 27 30 26.664 30 26.25V24H34.101C34.3665 25.095 34.5 26.2155 34.5 27.348V31.5Z" fill="url(#paint0_linear_2667_292)"/>
<path d="M30.3683 5.95007C30.3683 6.06103 30.3242 6.16744 30.2457 6.2459C30.1673 6.32435 30.0609 6.36843 29.9499 6.36843C29.9307 6.36942 29.9115 6.36942 29.8923 6.36843L29.8792 6.35542L29.8681 6.36657C29.7906 6.35112 29.7192 6.31406 29.6619 6.25968C29.6046 6.2053 29.5639 6.13583 29.5445 6.05928C29.525 5.98274 29.5276 5.90226 29.552 5.82714C29.5764 5.75202 29.6216 5.68534 29.6822 5.63481C29.7429 5.58427 29.8167 5.55195 29.895 5.54157C29.9733 5.53119 30.0529 5.54318 30.1246 5.57616C30.1964 5.60914 30.2574 5.66175 30.3005 5.72792C30.3436 5.79409 30.3671 5.87111 30.3683 5.95007ZM29.3233 6.24943L28.7469 6.82398C28.7253 6.84559 28.7081 6.87124 28.6964 6.89948C28.6847 6.92771 28.6787 6.95797 28.6787 6.98853C28.6787 7.01909 28.6847 7.04935 28.6964 7.07759C28.7081 7.10582 28.7253 7.13148 28.7469 7.15309C28.7685 7.1747 28.7942 7.19184 28.8224 7.20353C28.8506 7.21523 28.8809 7.22125 28.9114 7.22125C28.942 7.22125 28.9723 7.21523 29.0005 7.20353C29.0287 7.19184 29.0544 7.1747 29.076 7.15309L29.6505 6.57668C29.5075 6.50791 29.3921 6.3925 29.3233 6.24943ZM30.1823 5.29557V4.0907C30.1823 4.02905 30.1578 3.96994 30.1142 3.92635C30.0707 3.88276 30.0115 3.85827 29.9499 3.85827C29.8883 3.85827 29.8291 3.88276 29.7856 3.92635C29.742 3.96994 29.7175 4.02905 29.7175 4.0907V5.29557C29.8672 5.23852 30.0326 5.23852 30.1823 5.29557ZM33.1108 6.08952H33.8007C33.7829 6.64991 33.6406 7.19931 33.3842 7.69788L32.5772 6.29963C32.5082 6.17908 32.4086 6.07889 32.2884 6.00922C32.1683 5.93954 32.0318 5.90284 31.8929 5.90284C31.7541 5.90284 31.6176 5.93954 31.4975 6.00922C31.3773 6.07889 31.2777 6.17908 31.2087 6.29963L29.2247 9.73576C28.8477 9.66799 28.4833 9.54256 28.1444 9.36388L28.3044 9.08684C28.3228 9.05478 28.3278 9.0167 28.3183 8.98095C28.3087 8.94521 28.2853 8.91474 28.2532 8.89625C28.2212 8.87776 28.1831 8.87276 28.1473 8.88235C28.1116 8.89194 28.0811 8.91533 28.0626 8.94738L27.9046 9.21513C27.4122 8.90457 26.9954 8.48782 26.6848 7.99538L26.96 7.83734C26.9759 7.82818 26.9898 7.81599 27.001 7.80145C27.0121 7.78692 27.0203 7.77033 27.0251 7.75263C27.0298 7.73494 27.031 7.71648 27.0286 7.69831C27.0263 7.68014 27.0203 7.66262 27.0112 7.64675C27.002 7.63088 26.9898 7.61697 26.9753 7.60581C26.9607 7.59465 26.9442 7.58646 26.9265 7.58171C26.8907 7.57212 26.8526 7.57713 26.8206 7.59562L26.5435 7.75552C26.2683 7.23946 26.1162 6.66671 26.0991 6.08209H26.789C26.826 6.08209 26.8614 6.06739 26.8876 6.04124C26.9137 6.01509 26.9284 5.97962 26.9284 5.94263C26.9284 5.90565 26.9137 5.87018 26.8876 5.84403C26.8614 5.81787 26.826 5.80318 26.789 5.80318H26.0991C26.1162 5.21856 26.2683 4.64581 26.5435 4.12974L26.8206 4.28965C26.8521 4.3068 26.889 4.31115 26.9236 4.3018C26.9582 4.29245 26.9879 4.27012 27.0065 4.23945C27.0237 4.20794 27.028 4.17105 27.0187 4.13642C27.0093 4.10179 26.987 4.0721 26.9563 4.05351L26.6848 3.90476C26.9954 3.41233 27.4122 2.99558 27.9046 2.68501L28.0626 2.9602C28.0715 2.97575 28.0834 2.98939 28.0975 3.00034C28.1117 3.01128 28.1279 3.01932 28.1452 3.02399C28.1624 3.02865 28.1805 3.02986 28.1982 3.02752C28.216 3.02519 28.2331 3.01937 28.2486 3.0104C28.2792 2.99181 28.3016 2.96212 28.3109 2.92749C28.3203 2.89286 28.3159 2.85596 28.2988 2.82446L28.1389 2.54742C28.6549 2.27219 29.2277 2.12009 29.8123 2.10302V2.78913C29.8123 2.82612 29.827 2.86159 29.8532 2.88774C29.8793 2.91389 29.9148 2.92859 29.9518 2.92859C29.9887 2.92859 30.0242 2.91389 30.0504 2.88774C30.0765 2.86159 30.0912 2.82612 30.0912 2.78913V2.09931C30.6758 2.11637 31.2486 2.26847 31.7647 2.5437L31.6047 2.82074C31.5876 2.85225 31.5832 2.88914 31.5926 2.92377C31.6019 2.9584 31.6243 2.98809 31.6549 3.00668C31.6704 3.01565 31.6876 3.02147 31.7053 3.02381C31.723 3.02614 31.7411 3.02494 31.7584 3.02027C31.7756 3.0156 31.7918 3.00757 31.806 2.99662C31.8202 2.98567 31.832 2.97203 31.8409 2.95648L31.9952 2.68501C32.4876 2.99558 32.9044 3.41233 33.215 3.90476L32.9398 4.06281C32.9091 4.0814 32.8868 4.11109 32.8774 4.14572C32.8681 4.18034 32.8724 4.21724 32.8896 4.24874C32.9082 4.27942 32.9379 4.30175 32.9725 4.3111C33.0071 4.32045 33.044 4.3161 33.0755 4.29895L33.3526 4.13904C33.6278 4.65511 33.7799 5.22786 33.7969 5.81248H33.1108C33.0739 5.81248 33.0384 5.82717 33.0122 5.85332C32.9861 5.87948 32.9714 5.91495 32.9714 5.95193C32.9714 5.98892 32.9861 6.02439 33.0122 6.05054C33.0384 6.07669 33.0739 6.09138 33.1108 6.09138V6.08952ZM30.6472 5.95007C30.6472 5.77534 30.5807 5.60716 30.4612 5.47965V4.0907C30.4612 3.95508 30.4074 3.82503 30.3115 3.72913C30.2156 3.63324 30.0855 3.57937 29.9499 3.57937C29.8143 3.57937 29.6842 3.63324 29.5883 3.72913C29.4924 3.82503 29.4386 3.95508 29.4386 4.0907V5.47965C29.3252 5.59987 29.2591 5.75706 29.2526 5.92218L28.5461 6.62688C28.4506 6.72302 28.397 6.85303 28.397 6.98853C28.397 7.12404 28.4506 7.25404 28.5461 7.35018C28.6422 7.44567 28.7722 7.49926 28.9077 7.49926C29.0432 7.49926 29.1732 7.44567 29.2694 7.35018L29.9741 6.64362C30.1543 6.63783 30.3252 6.56228 30.4508 6.43288C30.5764 6.30349 30.6468 6.13038 30.6472 5.95007ZM34.9237 5.95007C34.9255 6.97124 34.6104 7.9678 34.0219 8.80235L33.5497 7.98423C33.9031 7.36462 34.0883 6.66338 34.087 5.95007C34.0869 5.16931 33.8659 4.4045 33.4495 3.74404C33.0331 3.08358 32.4383 2.55443 31.7339 2.21775C31.0294 1.88107 30.2441 1.75061 29.4686 1.84143C28.6932 1.93226 27.9592 2.24067 27.3517 2.73102C26.7441 3.22137 26.2877 3.87364 26.0351 4.61244C25.7826 5.35125 25.7443 6.14643 25.9247 6.90608C26.105 7.66573 26.4967 8.35884 27.0543 8.90531C27.6119 9.45177 28.3128 9.82929 29.076 9.99421L29.0611 10.0184C28.9908 10.1382 28.9538 10.2746 28.9538 10.4135C28.9538 10.5524 28.9908 10.6888 29.0611 10.8086C29.0685 10.8225 29.0772 10.8355 29.0872 10.8477C28.1546 10.6834 27.2884 10.2564 26.5902 9.61682C25.892 8.97723 25.3908 8.15163 25.1457 7.23705C24.9005 6.32247 24.9215 5.35691 25.2062 4.45385C25.4909 3.55079 26.0274 2.74775 26.7527 2.1391C27.4781 1.53045 28.3621 1.1415 29.3008 1.01794C30.2396 0.894376 31.1942 1.04135 32.0523 1.44158C32.9104 1.84181 33.6365 2.47867 34.1451 3.27732C34.6538 4.07596 34.9239 5.0032 34.9237 5.95007ZM34.4831 10.6692C34.4384 10.7469 34.3739 10.8115 34.2962 10.8562C34.2184 10.901 34.1302 10.9243 34.0405 10.9239H29.7454C29.6555 10.9239 29.5672 10.9003 29.4894 10.8554C29.4116 10.8104 29.347 10.7457 29.3021 10.6679C29.2572 10.59 29.2337 10.5017 29.2338 10.4118C29.2339 10.322 29.2577 10.2337 29.3028 10.156L31.4504 6.43723C31.4953 6.35963 31.5599 6.29521 31.6375 6.25043C31.7152 6.20564 31.8033 6.18207 31.8929 6.18207C31.9826 6.18207 32.0707 6.20564 32.1484 6.25043C32.226 6.29521 32.2906 6.35963 32.3355 6.43723L34.4831 10.156C34.5287 10.2338 34.5527 10.3224 34.5527 10.4126C34.5527 10.5028 34.5287 10.5913 34.4831 10.6692ZM31.7535 9.01804C31.7535 9.05503 31.7682 9.0905 31.7943 9.11665C31.8205 9.1428 31.856 9.15749 31.8929 9.15749C31.9299 9.15749 31.9654 9.1428 31.9916 9.11665C32.0177 9.0905 32.0324 9.05503 32.0324 9.01804V7.62351C32.0324 7.58652 32.0177 7.55105 31.9916 7.5249C31.9654 7.49875 31.9299 7.48406 31.8929 7.48406C31.856 7.48406 31.8205 7.49875 31.7943 7.5249C31.7682 7.55105 31.7535 7.58652 31.7535 7.62351V9.01804ZM32.1812 9.90124C32.1812 9.84608 32.1648 9.79216 32.1341 9.74629C32.1035 9.70043 32.0599 9.66468 32.009 9.64357C31.958 9.62246 31.9019 9.61694 31.8478 9.6277C31.7937 9.63846 31.744 9.66502 31.705 9.70403C31.666 9.74303 31.6395 9.79273 31.6287 9.84683C31.6179 9.90093 31.6235 9.95701 31.6446 10.008C31.6657 10.0589 31.7014 10.1025 31.7473 10.1331C31.7932 10.1638 31.8471 10.1802 31.9022 10.1802C31.9762 10.1802 32.0472 10.1508 32.0995 10.0985C32.1518 10.0462 32.1812 9.97521 32.1812 9.90124Z" fill="#EF1206"/>
</g>
<defs>
<linearGradient id="paint0_linear_2667_292" x1="17.4227" y1="-6.23709e-08" x2="20.5394" y2="35.7426" gradientUnits="userSpaceOnUse">
<stop stop-color="#A60D4F"/>
<stop offset="1" stop-color="#660033"/>
</linearGradient>
<clipPath id="clip0_2667_292">
<rect width="36" height="36" fill="white"/>
</clipPath>
</defs>
</svg>
