<svg width="16" height="11" viewBox="0 0 16 11" fill="none" xmlns="http://www.w3.org/2000/svg">
<path d="M8.06719 2.6875V2.71484C9.7625 2.71484 11.1297 4.08203 11.1297 5.75C11.1297 7.44531 9.7625 8.8125 8.06719 8.8125C6.37187 8.8125 5.00469 7.44531 5.00469 5.75C5.00469 5.44922 5.05937 5.17578 5.14141 4.90234C5.33281 5.03906 5.60625 5.09375 5.87969 5.09375C6.7 5.09375 7.41094 4.41016 7.41094 3.5625C7.38359 3.31641 7.32891 3.04297 7.19219 2.82422C7.46562 2.74219 7.76641 2.71484 8.06719 2.6875ZM15.8328 5.36719C15.8875 5.47656 15.9148 5.61328 15.9148 5.77734C15.9148 5.91406 15.8875 6.05078 15.8328 6.16016C14.3562 9.05859 11.4031 11 8.06719 11C4.70391 11 1.75078 9.05859 0.274219 6.16016C0.219531 6.05078 0.192187 5.91406 0.192187 5.75C0.192187 5.61328 0.219531 5.47656 0.274219 5.36719C1.75078 2.46875 4.70391 0.5 8.06719 0.5C11.4031 0.5 14.3562 2.46875 15.8328 5.36719ZM8.06719 9.6875C10.7469 9.6875 13.2352 8.18359 14.5477 5.75C13.2352 3.31641 10.7469 1.8125 8.06719 1.8125C5.36016 1.8125 2.87187 3.31641 1.55937 5.75C2.87187 8.18359 5.36016 9.6875 8.06719 9.6875Z" fill="white"/>
</svg>
