<svg width="36" height="36" viewBox="0 0 36 36" fill="none" xmlns="http://www.w3.org/2000/svg">
<g clip-path="url(#clip0_2667_303)">
<path d="M6.75 13.5C7.164 13.5 7.5 13.164 7.5 12.75V10.5H25.173L24.9 9.5445C24.8055 9.21 24.699 8.88 24.582 8.5515L22.4175 2.4885C21.8865 0.999 20.4675 0 18.8865 0H6.615C5.034 0 3.615 1.0005 3.084 2.4885L0.918 8.5515C0.309 10.257 0 12.039 0 13.848V19.5H3V22.5H7.5V18H1.5V13.848C1.5 12.7155 1.6335 11.595 1.899 10.5H6V12.75C6 13.164 6.336 13.5 6.75 13.5ZM6 19.5V21H4.5V19.5H6ZM4.4955 2.9925C4.815 2.1 5.667 1.5 6.615 1.5H18.885C19.833 1.5 20.685 2.1 21.0045 2.9925L23.1495 9H2.349L4.4955 2.9925ZM36 27.348C36 25.539 35.691 23.757 35.082 22.0515L32.9175 15.9885C32.3865 14.499 30.9675 13.5 29.3865 13.5H17.115C15.534 13.5 14.115 14.5005 13.584 15.9885L11.4195 22.0515C10.8105 23.757 10.5015 25.539 10.5015 27.348V33H13.5015V36H18.0015V33H28.5015V36H33.0015V33H36.0015L36 27.348ZM14.9955 16.4925C15.315 15.6 16.167 15 17.115 15H29.3865C30.3345 15 31.1865 15.6 31.506 16.4925L33.651 22.5H12.849L14.9955 16.4925ZM16.5 34.5H15V33H16.5V34.5ZM31.5 34.5H30V33H31.5V34.5ZM34.5 31.5H12V27.348C12 26.2155 12.1335 25.095 12.399 24H16.5V26.25C16.5 26.664 16.836 27 17.25 27C17.664 27 18 26.664 18 26.25V24H28.5V26.25C28.5 26.664 28.836 27 29.25 27C29.664 27 30 26.664 30 26.25V24H34.101C34.3665 25.095 34.5 26.2155 34.5 27.348V31.5Z" fill="url(#paint0_linear_2667_303)"/>
<path fill-rule="evenodd" clip-rule="evenodd" d="M30.2548 0.26398C29.2661 0.265811 28.3003 0.560775 27.4793 1.11167C26.6582 1.66252 26.0187 2.44452 25.6417 3.35886C25.2647 4.27313 25.1672 5.27876 25.3612 6.24858C25.5554 7.21841 26.0325 8.10891 26.7322 8.80753C27.4321 9.50616 28.3232 9.98147 29.2929 10.1735C30.2627 10.3656 31.2676 10.2658 32.1807 9.8866C33.0937 9.50752 33.8739 8.86597 34.4228 8.04326C34.9716 7.22059 35.2643 6.25361 35.2639 5.26458C35.2633 4.60717 35.133 3.95631 34.8809 3.34924C34.6288 2.74209 34.2596 2.19069 33.7945 1.72629C33.3293 1.26201 32.7774 0.893842 32.17 0.642903C31.5627 0.392041 30.9119 0.26324 30.2548 0.26398ZM30.2548 8.53961C29.6074 8.53961 28.9745 8.34754 28.4361 7.98774C27.8978 7.62783 27.4782 7.11633 27.2305 6.51791C26.9827 5.91949 26.9178 5.26095 27.0442 4.62568C27.1705 3.9904 27.4823 3.40678 27.94 2.94877C28.3979 2.49084 28.9812 2.17889 29.6162 2.05247C30.2512 1.92612 30.9093 1.99103 31.5075 2.23885C32.1056 2.48675 32.6169 2.9065 32.9766 3.44508C33.3363 3.98366 33.5283 4.61683 33.5283 5.26466C33.5273 6.13295 33.1821 6.9654 32.5684 7.57941C31.9547 8.19326 31.1227 8.53863 30.2548 8.53961ZM28.8493 4.40088H31.6645H31.6682C31.8971 4.40088 32.1168 4.49189 32.2786 4.65384C32.4405 4.8158 32.5314 5.03549 32.5314 5.26462C32.5314 5.49362 32.4405 5.71335 32.2786 5.87531C32.1168 6.03726 31.8971 6.12827 31.6682 6.12827H28.8493C28.6203 6.12827 28.4007 6.03726 28.2389 5.87531C28.0769 5.71335 27.986 5.49366 27.986 5.26462C27.986 5.03549 28.0769 4.8158 28.2389 4.65384C28.4007 4.49189 28.6203 4.40088 28.8493 4.40088Z" fill="#E33629"/>
</g>
<defs>
<linearGradient id="paint0_linear_2667_303" x1="17.4227" y1="-6.23709e-08" x2="20.5394" y2="35.7426" gradientUnits="userSpaceOnUse">
<stop stop-color="#A60D4F"/>
<stop offset="1" stop-color="#660033"/>
</linearGradient>
<clipPath id="clip0_2667_303">
<rect width="36" height="36" fill="white"/>
</clipPath>
</defs>
</svg>
