<svg width="16" height="18" viewBox="0 0 16 18" fill="none" xmlns="http://www.w3.org/2000/svg">
<g clip-path="url(#clip0_2635_846)">
<g clip-path="url(#clip1_2635_846)">
<g clip-path="url(#clip2_2635_846)">
<mask id="mask0_2635_846" style="mask-type:luminance" maskUnits="userSpaceOnUse" x="0" y="0" width="16" height="17">
<path d="M16 0.680054H0V16.6801H16V0.680054Z" fill="white"/>
</mask>
<g mask="url(#mask0_2635_846)">
<path d="M1.76768 14.1264C1.84502 14.9531 2.51335 15.5408 3.34302 15.5821C4.32135 15.6301 5.84668 15.6801 7.99935 15.6801C10.152 15.6801 11.6774 15.6308 12.656 15.5821C13.4853 15.5408 14.1537 14.9534 14.231 14.1264C14.2867 13.5274 14.3327 12.7198 14.3327 11.6801C14.3327 10.6408 14.2867 9.83272 14.231 9.23405C14.1537 8.40672 13.4853 7.81938 12.6557 7.77805C11.6774 7.72938 10.152 7.68005 7.99935 7.68005C5.84668 7.68005 4.32135 7.72938 3.34268 7.77805C2.51335 7.81938 1.84502 8.40672 1.76768 9.23372C1.71168 9.83305 1.66602 10.6404 1.66602 11.6801C1.66602 12.7194 1.71168 13.5274 1.76768 14.1264Z" fill="#676872" fill-opacity="0.2"/>
<path d="M6.09751 7.69439C4.98418 7.71139 4.11384 7.74172 3.46484 7.77239L3.69451 5.01505C3.77779 4.01515 4.23381 3.08307 4.97213 2.40365C5.71045 1.72423 6.67715 1.3471 7.68051 1.34705H8.31951C9.32293 1.34702 10.2897 1.72411 11.0281 2.40354C11.7665 3.08297 12.2226 4.0151 12.3058 5.01505C12.3133 5.10616 12.3014 5.19781 12.2711 5.28405C12.2408 5.37029 12.1927 5.44919 12.13 5.51564C12.0672 5.58209 11.9911 5.6346 11.9068 5.66976C11.8224 5.70491 11.7316 5.72194 11.6402 5.71972C11.1802 5.70905 10.6775 5.69972 10.1305 5.69305C10.0367 5.69187 9.94689 5.65521 9.87904 5.59046C9.8112 5.52571 9.7704 5.43767 9.76484 5.34405C9.73858 4.89382 9.54122 4.47066 9.21317 4.16118C8.88511 3.85171 8.45117 3.67933 8.00018 3.67933C7.54918 3.67933 7.11524 3.85171 6.78719 4.16118C6.45913 4.47066 6.26177 4.89382 6.23551 5.34405L6.09751 7.69439Z" fill="white"/>
<path d="M8.82668 12.059C9.04383 11.8872 9.20209 11.6521 9.27951 11.3862C9.35693 11.1204 9.34965 10.837 9.2587 10.5755C9.16774 10.3139 8.99762 10.0872 8.77195 9.92671C8.54628 9.76626 8.27625 9.68005 7.99935 9.68005C7.72245 9.68005 7.45242 9.76626 7.22675 9.92671C7.00108 10.0872 6.83095 10.3139 6.74 10.5755C6.64905 10.837 6.64177 11.1204 6.71919 11.3862C6.7966 11.6521 6.95487 11.8872 7.17202 12.059L6.95968 12.969C6.88635 13.284 7.05535 13.5967 7.37535 13.6404C7.54402 13.6634 7.75202 13.68 7.99935 13.68C8.24668 13.68 8.45468 13.6634 8.62335 13.64C8.94335 13.5967 9.11268 13.284 9.03902 12.9694L8.82668 12.059Z" fill="white"/>
<path d="M6.09589 7.69439L6.23389 5.34439C6.26015 4.89416 6.45751 4.47099 6.78557 4.16152C7.11362 3.85204 7.54756 3.67966 7.99856 3.67966C8.44955 3.67966 8.88349 3.85204 9.21155 4.16152C9.5396 4.47099 9.73696 4.89416 9.76322 5.34439C9.76878 5.43797 9.8096 5.52598 9.87745 5.59067C9.9453 5.65537 10.0351 5.69195 10.1289 5.69305C10.6756 5.69972 11.1786 5.70905 11.6386 5.71972C11.7299 5.72194 11.8208 5.70491 11.9051 5.66976C11.9895 5.6346 12.0656 5.58209 12.1283 5.51564C12.1911 5.44919 12.2392 5.37029 12.2695 5.28405C12.2998 5.19781 12.3116 5.10616 12.3042 5.01505C12.2209 4.0151 11.7649 3.08297 11.0265 2.40354C10.2881 1.72411 9.32131 1.34702 8.31789 1.34705H7.67922C6.67581 1.34702 5.70903 1.72411 4.97063 2.40354C4.23224 3.08297 3.77617 4.0151 3.69289 5.01505L3.46289 7.77239" stroke="#686973" stroke-linecap="round" stroke-linejoin="round"/>
<path d="M1.76768 14.1264C1.84502 14.9531 2.51335 15.5408 3.34302 15.5821C4.32135 15.6301 5.84668 15.6801 7.99935 15.6801C10.152 15.6801 11.6773 15.6308 12.656 15.5821C13.4853 15.5408 14.1537 14.9534 14.231 14.1264C14.287 13.5274 14.3327 12.7198 14.3327 11.6801C14.3327 10.6408 14.287 9.83272 14.231 9.23405C14.1537 8.40672 13.4853 7.81938 12.6557 7.77805C11.6773 7.72938 10.152 7.68005 7.99935 7.68005C5.84668 7.68005 4.32135 7.72938 3.34268 7.77805C2.51335 7.81938 1.84502 8.40672 1.76768 9.23372C1.71168 9.83305 1.66602 10.6404 1.66602 11.6801C1.66602 12.7194 1.71168 13.5274 1.76768 14.1264Z" stroke="#686973" stroke-linecap="round" stroke-linejoin="round"/>
<path d="M8.82668 12.059C9.04383 11.8872 9.20209 11.6521 9.27951 11.3862C9.35693 11.1204 9.34965 10.837 9.2587 10.5755C9.16774 10.3139 8.99762 10.0872 8.77195 9.92671C8.54628 9.76626 8.27625 9.68005 7.99935 9.68005C7.72245 9.68005 7.45242 9.76626 7.22675 9.92671C7.00108 10.0872 6.83095 10.3139 6.74 10.5755C6.64905 10.837 6.64177 11.1204 6.71919 11.3862C6.7966 11.6521 6.95487 11.8872 7.17202 12.059L6.95968 12.969C6.88635 13.284 7.05535 13.5967 7.37535 13.6404C7.54402 13.6634 7.75202 13.68 7.99935 13.68C8.24668 13.68 8.45468 13.6634 8.62335 13.64C8.94335 13.5967 9.11268 13.284 9.03902 12.9694L8.82668 12.059Z" stroke="#686973" stroke-linecap="round" stroke-linejoin="round"/>
</g>
</g>
</g>
</g>
<defs>
<clipPath id="clip0_2635_846">
<rect width="16" height="17" fill="white" transform="translate(0 0.180054)"/>
</clipPath>
<clipPath id="clip1_2635_846">
<rect width="16" height="17" fill="white" transform="translate(0 0.180054)"/>
</clipPath>
<clipPath id="clip2_2635_846">
<rect width="16" height="17" fill="white" transform="translate(0 0.180054)"/>
</clipPath>
</defs>
</svg>
