<svg width="40" height="59" viewBox="0 0 40 59" fill="none" xmlns="http://www.w3.org/2000/svg">
<path d="M32.4075 55.1779C32.4075 56.9467 27.5356 58.6823 19.9988 58.6823C12.4619 58.6823 7.59009 56.9467 7.59009 55.1779C7.59009 53.8993 9.5329 52.7899 14.1407 52.2714C10.9678 52.7366 8.85688 53.5595 8.85688 54.4995C8.85688 55.9474 13.8447 57.1207 19.9976 57.1207C26.1504 57.1207 31.1383 55.9486 31.1383 54.4995C31.1383 53.5642 29.0534 52.7461 25.9137 52.2808C30.4883 52.8041 32.4051 53.904 32.4051 55.1779H32.4075Z" fill="url(#paint0_linear_2635_973)"/>
<path d="M20 0C8.954 0 0 8.954 0 19.9988C0 27.718 4.95235 36.5394 9.92837 43.4547C13.125 42.1891 16.8614 40.4487 20.4002 38.172C20.2664 38.1744 20.1338 38.1768 20 38.1768C15.3093 38.1768 10.8992 36.35 7.58184 33.0326C4.26449 29.7153 2.4377 25.3052 2.4377 20.6145C2.4377 15.9238 4.26449 11.5136 7.58184 8.19629C10.8992 4.87894 15.3093 3.05215 20 3.05215C24.6907 3.05215 29.1008 4.87894 32.4182 8.19629C35.7355 11.5136 37.5623 15.9238 37.5623 20.6145C37.5623 25.3052 35.7355 29.7153 32.4182 33.0326C32.4182 33.0326 32.398 33.0516 32.3601 33.0894C32.0547 33.3925 31.7398 33.6826 31.4166 33.9608C28.8794 36.2233 21.6954 42.118 11.799 45.9682C16.1333 51.6143 20.0012 55.4751 20.0012 55.4751C20.0012 55.4751 40 35.5117 40 19.9976C39.9988 8.95401 31.0448 0 20 0Z" fill="url(#paint1_linear_2635_973)"/>
<path d="M30.3227 12.4252L18.5415 22.0529L17.3694 32.5685L30.3227 12.4252Z" fill="url(#paint2_linear_2635_973)"/>
<path d="M18.5415 22.0529L17.3695 32.5685L15.9026 24.2088L18.5415 22.0529Z" fill="url(#paint3_linear_2635_973)"/>
<path d="M8.00342 21.1069L18.5415 22.0529L30.3227 12.4252L8.00342 21.1069Z" fill="url(#paint4_linear_2635_973)"/>
<path d="M18.5415 22.0529L15.9025 24.2088L8.00342 21.1069L18.5415 22.0529Z" fill="url(#paint5_linear_2635_973)"/>
<path d="M15.9829 51.0969C16.299 50.8542 16.6104 50.6115 16.9182 50.3712" stroke="white" stroke-width="0.236784" stroke-miterlimit="10"/>
<path d="M18.7889 48.8711C23.7235 44.8292 27.4552 41.0845 30.1013 38.204C34.895 32.9853 36.1842 30.5369 36.9858 28.4686C37.7304 26.5471 39.6093 21.487 38.0335 15.3046C37.605 13.6234 36.4341 9.28078 32.4087 5.72546C27.7381 1.60067 22.2661 1.22182 20 1.23602C14.2758 1.26917 8.50059 3.85604 5.12759 8.27089C2.99535 11.0614 2.06715 14.258 1.81379 15.1554C1.51426 16.2186 1.04188 17.9412 1.06555 20.2439C1.08331 22.0328 1.39232 23.3588 1.66462 24.5001C1.73684 24.8044 2.48508 27.8577 4.05969 30.7548C6.30915 34.8961 9.79817 37.8879 12.1116 39.5702" stroke="white" stroke-width="0.236784" stroke-miterlimit="10" stroke-dasharray="2.4 2.4"/>
<path d="M13.0918 40.2557C13.5062 40.534 13.846 40.7483 14.0863 40.8974" stroke="white" stroke-width="0.236784" stroke-miterlimit="10"/>
<defs>
<linearGradient id="paint0_linear_2635_973" x1="7.59127" y1="55.4762" x2="32.4075" y2="55.4762" gradientUnits="userSpaceOnUse">
<stop stop-color="#650A34"/>
<stop offset="1" stop-color="#A61D51"/>
</linearGradient>
<linearGradient id="paint1_linear_2635_973" x1="0" y1="27.7381" x2="39.9988" y2="27.7381" gradientUnits="userSpaceOnUse">
<stop stop-color="#650A34"/>
<stop offset="1" stop-color="#A61D51"/>
</linearGradient>
<linearGradient id="paint2_linear_2635_973" x1="21.2427" y1="19.6217" x2="25.9464" y2="24.7987" gradientUnits="userSpaceOnUse">
<stop stop-color="#650A34"/>
<stop offset="1" stop-color="#A61D51"/>
</linearGradient>
<linearGradient id="paint3_linear_2635_973" x1="15.2604" y1="26.5541" x2="18.8024" y2="27.5521" gradientUnits="userSpaceOnUse">
<stop stop-color="#650A34"/>
<stop offset="1" stop-color="#A61D51"/>
</linearGradient>
<linearGradient id="paint4_linear_2635_973" x1="18.9199" y1="13.2832" x2="19.5673" y2="21.985" gradientUnits="userSpaceOnUse">
<stop stop-color="#650A34"/>
<stop offset="1" stop-color="#A61D51"/>
</linearGradient>
<linearGradient id="paint5_linear_2635_973" x1="13.2949" y1="21.5321" x2="13.0539" y2="23.9293" gradientUnits="userSpaceOnUse">
<stop stop-color="#650A34"/>
<stop offset="1" stop-color="#A61D51"/>
</linearGradient>
</defs>
</svg>
