<svg width="198" height="59" viewBox="0 0 198 59" fill="none" xmlns="http://www.w3.org/2000/svg">
<path d="M55.264 35.072H50.224V30.88H65.072V35.072H60.048V52H55.264V35.072ZM71.0733 52H66.2093V38.864H71.0733V40.896H70.9933C71.0786 40.6507 71.2866 40.3413 71.6173 39.968C71.9479 39.584 72.4119 39.2427 73.0093 38.944C73.6066 38.6347 74.3373 38.48 75.2013 38.48C75.8093 38.48 76.3693 38.576 76.8813 38.768C77.3933 38.9493 77.7666 39.1253 78.0013 39.296L76.1133 43.248C75.9639 43.0667 75.6973 42.88 75.3133 42.688C74.9399 42.4853 74.4706 42.384 73.9053 42.384C73.2546 42.384 72.7159 42.5493 72.2893 42.88C71.8733 43.2107 71.5639 43.6107 71.3613 44.08C71.1693 44.5493 71.0733 44.992 71.0733 45.408V52ZM89.161 52V49.872C89.065 50.0853 88.8197 50.3947 88.425 50.8C88.041 51.2053 87.529 51.5733 86.889 51.904C86.249 52.224 85.5023 52.384 84.649 52.384C83.369 52.384 82.249 52.0747 81.289 51.456C80.329 50.8267 79.5823 49.9893 79.049 48.944C78.5157 47.888 78.249 46.72 78.249 45.44C78.249 44.16 78.5157 42.9973 79.049 41.952C79.5823 40.896 80.329 40.0533 81.289 39.424C82.249 38.7947 83.369 38.48 84.649 38.48C85.4703 38.48 86.1903 38.6133 86.809 38.88C87.4277 39.136 87.929 39.4453 88.313 39.808C88.697 40.16 88.9637 40.4853 89.113 40.784V38.864H93.945V52H89.161ZM83.017 45.44C83.017 46.0373 83.1557 46.576 83.433 47.056C83.7103 47.5253 84.0783 47.8933 84.537 48.16C85.0063 48.4267 85.5237 48.56 86.089 48.56C86.6757 48.56 87.193 48.4267 87.641 48.16C88.089 47.8933 88.441 47.5253 88.697 47.056C88.9637 46.576 89.097 46.0373 89.097 45.44C89.097 44.8427 88.9637 44.3093 88.697 43.84C88.441 43.36 88.089 42.9867 87.641 42.72C87.193 42.4427 86.6757 42.304 86.089 42.304C85.5237 42.304 85.0063 42.4427 84.537 42.72C84.0783 42.9867 83.7103 43.36 83.433 43.84C83.1557 44.3093 83.017 44.8427 83.017 45.44ZM104.152 48.56C104.76 48.56 105.261 48.4587 105.656 48.256C106.05 48.0427 106.317 47.872 106.456 47.744L108.68 51.04C108.509 51.1787 108.216 51.36 107.8 51.584C107.384 51.7973 106.861 51.984 106.232 52.144C105.613 52.304 104.904 52.384 104.104 52.384C102.6 52.384 101.277 52.1013 100.136 51.536C98.9942 50.96 98.1035 50.1493 97.4635 49.104C96.8342 48.0587 96.5195 46.832 96.5195 45.424C96.5195 44.0053 96.8342 42.7787 97.4635 41.744C98.1035 40.7093 98.9942 39.9093 100.136 39.344C101.277 38.768 102.6 38.48 104.104 38.48C104.893 38.48 105.597 38.5653 106.216 38.736C106.845 38.896 107.373 39.0827 107.8 39.296C108.226 39.4987 108.525 39.6747 108.696 39.824L106.424 43.152C106.349 43.0773 106.21 42.9707 106.008 42.832C105.816 42.6933 105.565 42.5707 105.256 42.464C104.946 42.3573 104.578 42.304 104.152 42.304C103.629 42.304 103.138 42.4373 102.68 42.704C102.232 42.9707 101.869 43.3387 101.592 43.808C101.314 44.2773 101.176 44.816 101.176 45.424C101.176 46.032 101.314 46.576 101.592 47.056C101.869 47.5253 102.232 47.8933 102.68 48.16C103.138 48.4267 103.629 48.56 104.152 48.56ZM114.529 46.464C114.561 46.9333 114.71 47.3493 114.977 47.712C115.243 48.0747 115.611 48.3627 116.081 48.576C116.561 48.7787 117.126 48.88 117.777 48.88C118.395 48.88 118.95 48.816 119.441 48.688C119.942 48.56 120.374 48.4 120.737 48.208C121.11 48.016 121.398 47.8187 121.601 47.616L123.489 50.624C123.222 50.912 122.843 51.1947 122.353 51.472C121.873 51.7387 121.238 51.9573 120.449 52.128C119.659 52.2987 118.662 52.384 117.457 52.384C116.006 52.384 114.715 52.112 113.585 51.568C112.454 51.024 111.563 50.224 110.913 49.168C110.262 48.112 109.937 46.8213 109.937 45.296C109.937 44.016 110.214 42.864 110.769 41.84C111.334 40.8053 112.15 39.9893 113.217 39.392C114.283 38.784 115.569 38.48 117.073 38.48C118.502 38.48 119.739 38.7413 120.785 39.264C121.841 39.7867 122.651 40.5653 123.217 41.6C123.793 42.624 124.081 43.904 124.081 45.44C124.081 45.5253 124.075 45.696 124.065 45.952C124.065 46.208 124.054 46.3787 124.033 46.464H114.529ZM119.505 43.92C119.494 43.5787 119.403 43.2427 119.233 42.912C119.062 42.5707 118.806 42.2933 118.465 42.08C118.123 41.856 117.686 41.744 117.153 41.744C116.619 41.744 116.166 41.8507 115.793 42.064C115.43 42.2667 115.153 42.5333 114.961 42.864C114.769 43.1947 114.662 43.5467 114.641 43.92H119.505ZM125.474 38.864H127.714V33.472H132.53V38.864H135.474V42.864H132.53V46.528C132.53 47.072 132.61 47.5147 132.77 47.856C132.93 48.1867 133.223 48.352 133.65 48.352C133.938 48.352 134.183 48.288 134.386 48.16C134.589 48.032 134.711 47.9467 134.754 47.904L136.418 51.36C136.343 51.424 136.109 51.5413 135.714 51.712C135.33 51.8827 134.839 52.0373 134.242 52.176C133.645 52.3147 132.978 52.384 132.242 52.384C130.93 52.384 129.847 52.016 128.994 51.28C128.141 50.5333 127.714 49.3867 127.714 47.84V42.864H125.474V38.864ZM142.667 52H137.803V38.864H142.667V40.896H142.587C142.672 40.6507 142.88 40.3413 143.211 39.968C143.542 39.584 144.006 39.2427 144.603 38.944C145.2 38.6347 145.931 38.48 146.795 38.48C147.403 38.48 147.963 38.576 148.475 38.768C148.987 38.9493 149.36 39.1253 149.595 39.296L147.707 43.248C147.558 43.0667 147.291 42.88 146.907 42.688C146.534 42.4853 146.064 42.384 145.499 42.384C144.848 42.384 144.31 42.5493 143.883 42.88C143.467 43.2107 143.158 43.6107 142.955 44.08C142.763 44.5493 142.667 44.992 142.667 45.408V52ZM160.755 52V49.872C160.659 50.0853 160.413 50.3947 160.019 50.8C159.635 51.2053 159.123 51.5733 158.483 51.904C157.843 52.224 157.096 52.384 156.243 52.384C154.963 52.384 153.843 52.0747 152.883 51.456C151.923 50.8267 151.176 49.9893 150.643 48.944C150.109 47.888 149.843 46.72 149.843 45.44C149.843 44.16 150.109 42.9973 150.643 41.952C151.176 40.896 151.923 40.0533 152.883 39.424C153.843 38.7947 154.963 38.48 156.243 38.48C157.064 38.48 157.784 38.6133 158.403 38.88C159.021 39.136 159.523 39.4453 159.907 39.808C160.291 40.16 160.557 40.4853 160.707 40.784V38.864H165.539V52H160.755ZM154.611 45.44C154.611 46.0373 154.749 46.576 155.027 47.056C155.304 47.5253 155.672 47.8933 156.131 48.16C156.6 48.4267 157.117 48.56 157.683 48.56C158.269 48.56 158.787 48.4267 159.235 48.16C159.683 47.8933 160.035 47.5253 160.291 47.056C160.557 46.576 160.691 46.0373 160.691 45.44C160.691 44.8427 160.557 44.3093 160.291 43.84C160.035 43.36 159.683 42.9867 159.235 42.72C158.787 42.4427 158.269 42.304 157.683 42.304C157.117 42.304 156.6 42.4427 156.131 42.72C155.672 42.9867 155.304 43.36 155.027 43.84C154.749 44.3093 154.611 44.8427 154.611 45.44ZM175.745 48.56C176.353 48.56 176.855 48.4587 177.249 48.256C177.644 48.0427 177.911 47.872 178.049 47.744L180.273 51.04C180.103 51.1787 179.809 51.36 179.393 51.584C178.977 51.7973 178.455 51.984 177.825 52.144C177.207 52.304 176.497 52.384 175.697 52.384C174.193 52.384 172.871 52.1013 171.729 51.536C170.588 50.96 169.697 50.1493 169.057 49.104C168.428 48.0587 168.113 46.832 168.113 45.424C168.113 44.0053 168.428 42.7787 169.057 41.744C169.697 40.7093 170.588 39.9093 171.729 39.344C172.871 38.768 174.193 38.48 175.697 38.48C176.487 38.48 177.191 38.5653 177.809 38.736C178.439 38.896 178.967 39.0827 179.393 39.296C179.82 39.4987 180.119 39.6747 180.289 39.824L178.017 43.152C177.943 43.0773 177.804 42.9707 177.601 42.832C177.409 42.6933 177.159 42.5707 176.849 42.464C176.54 42.3573 176.172 42.304 175.745 42.304C175.223 42.304 174.732 42.4373 174.273 42.704C173.825 42.9707 173.463 43.3387 173.185 43.808C172.908 44.2773 172.769 44.816 172.769 45.424C172.769 46.032 172.908 46.576 173.185 47.056C173.463 47.5253 173.825 47.8933 174.273 48.16C174.732 48.4267 175.223 48.56 175.745 48.56ZM191.21 38.864H196.714L190.522 45.136L197.354 52H191.722L186.65 46.72V52H181.786V29.984H186.65V43.44L191.21 38.864Z" fill="#231F20"/>
<path d="M32.4075 55.1779C32.4075 56.9467 27.5356 58.6823 19.9988 58.6823C12.4619 58.6823 7.59009 56.9467 7.59009 55.1779C7.59009 53.8993 9.5329 52.7899 14.1407 52.2714C10.9678 52.7366 8.85688 53.5595 8.85688 54.4995C8.85688 55.9474 13.8447 57.1207 19.9976 57.1207C26.1504 57.1207 31.1383 55.9486 31.1383 54.4995C31.1383 53.5642 29.0534 52.7461 25.9137 52.2808C30.4883 52.8041 32.4051 53.904 32.4051 55.1779H32.4075Z" fill="url(#paint0_linear_2635_968)"/>
<path d="M20 0C8.954 0 0 8.954 0 19.9988C0 27.718 4.95235 36.5394 9.92837 43.4547C13.125 42.1891 16.8614 40.4487 20.4002 38.172C20.2664 38.1744 20.1338 38.1768 20 38.1768C15.3093 38.1768 10.8992 36.35 7.58184 33.0326C4.26449 29.7153 2.4377 25.3052 2.4377 20.6145C2.4377 15.9238 4.26449 11.5136 7.58184 8.19629C10.8992 4.87894 15.3093 3.05215 20 3.05215C24.6907 3.05215 29.1008 4.87894 32.4182 8.19629C35.7355 11.5136 37.5623 15.9238 37.5623 20.6145C37.5623 25.3052 35.7355 29.7153 32.4182 33.0326C32.4182 33.0326 32.398 33.0516 32.3601 33.0894C32.0547 33.3925 31.7398 33.6826 31.4166 33.9608C28.8794 36.2233 21.6954 42.118 11.799 45.9682C16.1333 51.6143 20.0012 55.4751 20.0012 55.4751C20.0012 55.4751 40 35.5117 40 19.9976C39.9988 8.95401 31.0448 0 20 0Z" fill="url(#paint1_linear_2635_968)"/>
<path d="M30.3227 12.4252L18.5415 22.0529L17.3694 32.5685L30.3227 12.4252Z" fill="url(#paint2_linear_2635_968)"/>
<path d="M18.5415 22.0529L17.3695 32.5685L15.9026 24.2088L18.5415 22.0529Z" fill="url(#paint3_linear_2635_968)"/>
<path d="M8.00342 21.1069L18.5415 22.0529L30.3227 12.4252L8.00342 21.1069Z" fill="url(#paint4_linear_2635_968)"/>
<path d="M18.5415 22.0529L15.9025 24.2088L8.00342 21.1069L18.5415 22.0529Z" fill="url(#paint5_linear_2635_968)"/>
<path d="M15.9829 51.0969C16.299 50.8542 16.6104 50.6115 16.9182 50.3712" stroke="white" stroke-width="0.236784" stroke-miterlimit="10"/>
<path d="M18.7889 48.8711C23.7235 44.8292 27.4552 41.0845 30.1013 38.204C34.895 32.9853 36.1842 30.5369 36.9858 28.4686C37.7304 26.5471 39.6093 21.487 38.0335 15.3046C37.605 13.6234 36.4341 9.28078 32.4087 5.72546C27.7381 1.60067 22.2661 1.22182 20 1.23602C14.2758 1.26917 8.50059 3.85604 5.12759 8.27089C2.99535 11.0614 2.06715 14.258 1.81379 15.1554C1.51426 16.2186 1.04188 17.9412 1.06555 20.2439C1.08331 22.0328 1.39232 23.3588 1.66462 24.5001C1.73684 24.8044 2.48508 27.8577 4.05969 30.7548C6.30915 34.8961 9.79817 37.8879 12.1116 39.5702" stroke="white" stroke-width="0.236784" stroke-miterlimit="10" stroke-dasharray="2.4 2.4"/>
<path d="M13.0918 40.2557C13.5062 40.534 13.846 40.7483 14.0863 40.8974" stroke="white" stroke-width="0.236784" stroke-miterlimit="10"/>
<defs>
<linearGradient id="paint0_linear_2635_968" x1="7.59127" y1="55.4762" x2="32.4075" y2="55.4762" gradientUnits="userSpaceOnUse">
<stop stop-color="#650A34"/>
<stop offset="1" stop-color="#A61D51"/>
</linearGradient>
<linearGradient id="paint1_linear_2635_968" x1="0" y1="27.7381" x2="39.9988" y2="27.7381" gradientUnits="userSpaceOnUse">
<stop stop-color="#650A34"/>
<stop offset="1" stop-color="#A61D51"/>
</linearGradient>
<linearGradient id="paint2_linear_2635_968" x1="21.2427" y1="19.6217" x2="25.9464" y2="24.7987" gradientUnits="userSpaceOnUse">
<stop stop-color="#650A34"/>
<stop offset="1" stop-color="#A61D51"/>
</linearGradient>
<linearGradient id="paint3_linear_2635_968" x1="15.2604" y1="26.5541" x2="18.8024" y2="27.5521" gradientUnits="userSpaceOnUse">
<stop stop-color="#650A34"/>
<stop offset="1" stop-color="#A61D51"/>
</linearGradient>
<linearGradient id="paint4_linear_2635_968" x1="18.9199" y1="13.2832" x2="19.5673" y2="21.985" gradientUnits="userSpaceOnUse">
<stop stop-color="#650A34"/>
<stop offset="1" stop-color="#A61D51"/>
</linearGradient>
<linearGradient id="paint5_linear_2635_968" x1="13.2949" y1="21.5321" x2="13.0539" y2="23.9293" gradientUnits="userSpaceOnUse">
<stop stop-color="#650A34"/>
<stop offset="1" stop-color="#A61D51"/>
</linearGradient>
</defs>
</svg>
