<svg width="148" height="244" viewBox="0 0 148 244" fill="none" xmlns="http://www.w3.org/2000/svg">
<path d="M116.451 188.056C116.451 194.085 99.8466 200 74.1596 200C48.4727 200 31.8685 194.085 31.8685 188.056C31.8685 183.698 38.49 179.918 54.1943 178.15C43.3805 179.736 36.186 182.54 36.186 185.744C36.186 190.679 53.1856 194.678 74.1556 194.678C95.1256 194.678 112.125 190.683 112.125 185.744C112.125 182.557 105.019 179.768 94.3186 178.183C109.91 179.966 116.443 183.715 116.443 188.056H116.451Z" fill="url(#paint0_linear_2635_875)"/>
<path d="M74.1637 0C36.5169 0 6 30.5169 6 68.1596C6 94.468 22.8785 124.533 39.8377 148.102C50.7323 143.788 63.4668 137.857 75.5275 130.097C75.0715 130.105 74.6196 130.113 74.1637 130.113C58.1769 130.113 43.1464 123.887 31.8403 112.581C20.5342 101.275 14.3081 86.2446 14.3081 70.2578C14.3081 54.2711 20.5342 39.2406 31.8403 27.9345C43.1464 16.6283 58.1769 10.4023 74.1637 10.4023C90.1504 10.4023 105.181 16.6283 116.487 27.9345C127.793 39.2406 134.019 54.2711 134.019 70.2578C134.019 86.2446 127.793 101.275 116.487 112.581C116.487 112.581 116.418 112.646 116.289 112.775C115.248 113.808 114.175 114.796 113.073 115.745C104.426 123.456 79.9418 143.546 46.2131 156.668C60.9853 175.911 74.1677 189.069 74.1677 189.069C74.1677 189.069 142.327 121.031 142.327 68.1556C142.323 30.5169 111.806 0 74.1637 0Z" fill="url(#paint1_linear_2635_875)"/>
<path d="M109.345 42.3475L69.1924 75.1604L65.1978 110.999L109.345 42.3475Z" fill="url(#paint2_linear_2635_875)"/>
<path d="M69.1924 75.1603L65.1978 110.999L60.1984 82.5081L69.1924 75.1603Z" fill="url(#paint3_linear_2635_875)"/>
<path d="M33.2767 71.9364L69.1925 75.1604L109.345 42.3475L33.2767 71.9364Z" fill="url(#paint4_linear_2635_875)"/>
<path d="M69.1925 75.1603L60.1984 82.5081L33.2767 71.9363L69.1925 75.1603Z" fill="url(#paint5_linear_2635_875)"/>
<path d="M60.4728 174.148C61.5501 173.32 62.6113 172.493 63.6604 171.674" stroke="white" stroke-width="0.807005" stroke-miterlimit="10"/>
<path d="M70.0358 166.562C86.8537 152.786 99.5721 140.023 108.59 130.206C124.928 112.42 129.322 104.075 132.054 97.0262C134.592 90.4773 140.996 73.2316 135.625 52.1607C134.164 46.431 130.174 31.6305 116.455 19.5134C100.537 5.45534 81.8866 4.16414 74.1636 4.21256C54.6543 4.32554 34.9714 13.1421 23.4756 28.1887C16.2085 37.6992 13.0451 48.5938 12.1816 51.6523C11.1607 55.2758 9.55076 61.1467 9.63146 68.9949C9.69199 75.0918 10.7451 79.611 11.6732 83.5008C11.9193 84.5378 14.4695 94.9441 19.836 104.818C27.5026 118.932 39.3938 129.129 47.2782 134.863" stroke="white" stroke-width="0.807005" stroke-miterlimit="10" stroke-dasharray="8.17 8.17"/>
<path d="M50.6193 137.199C52.0315 138.147 53.1896 138.877 54.0087 139.386" stroke="white" stroke-width="0.807005" stroke-miterlimit="10"/>
<path d="M5.264 220.072H0.224V215.88H15.072V220.072H10.048V237H5.264V220.072ZM21.0733 237H16.2093V223.864H21.0733V225.896H20.9933C21.0786 225.651 21.2866 225.341 21.6173 224.968C21.9479 224.584 22.4119 224.243 23.0093 223.944C23.6066 223.635 24.3373 223.48 25.2013 223.48C25.8093 223.48 26.3693 223.576 26.8813 223.768C27.3933 223.949 27.7666 224.125 28.0013 224.296L26.1133 228.248C25.9639 228.067 25.6973 227.88 25.3133 227.688C24.9399 227.485 24.4706 227.384 23.9053 227.384C23.2546 227.384 22.7159 227.549 22.2893 227.88C21.8733 228.211 21.5639 228.611 21.3613 229.08C21.1693 229.549 21.0733 229.992 21.0733 230.408V237ZM39.161 237V234.872C39.065 235.085 38.8197 235.395 38.425 235.8C38.041 236.205 37.529 236.573 36.889 236.904C36.249 237.224 35.5023 237.384 34.649 237.384C33.369 237.384 32.249 237.075 31.289 236.456C30.329 235.827 29.5823 234.989 29.049 233.944C28.5157 232.888 28.249 231.72 28.249 230.44C28.249 229.16 28.5157 227.997 29.049 226.952C29.5823 225.896 30.329 225.053 31.289 224.424C32.249 223.795 33.369 223.48 34.649 223.48C35.4703 223.48 36.1903 223.613 36.809 223.88C37.4277 224.136 37.929 224.445 38.313 224.808C38.697 225.16 38.9637 225.485 39.113 225.784V223.864H43.945V237H39.161ZM33.017 230.44C33.017 231.037 33.1557 231.576 33.433 232.056C33.7103 232.525 34.0783 232.893 34.537 233.16C35.0063 233.427 35.5237 233.56 36.089 233.56C36.6757 233.56 37.193 233.427 37.641 233.16C38.089 232.893 38.441 232.525 38.697 232.056C38.9637 231.576 39.097 231.037 39.097 230.44C39.097 229.843 38.9637 229.309 38.697 228.84C38.441 228.36 38.089 227.987 37.641 227.72C37.193 227.443 36.6757 227.304 36.089 227.304C35.5237 227.304 35.0063 227.443 34.537 227.72C34.0783 227.987 33.7103 228.36 33.433 228.84C33.1557 229.309 33.017 229.843 33.017 230.44ZM54.1515 233.56C54.7595 233.56 55.2608 233.459 55.6555 233.256C56.0502 233.043 56.3168 232.872 56.4555 232.744L58.6795 236.04C58.5088 236.179 58.2155 236.36 57.7995 236.584C57.3835 236.797 56.8608 236.984 56.2315 237.144C55.6128 237.304 54.9035 237.384 54.1035 237.384C52.5995 237.384 51.2768 237.101 50.1355 236.536C48.9942 235.96 48.1035 235.149 47.4635 234.104C46.8342 233.059 46.5195 231.832 46.5195 230.424C46.5195 229.005 46.8342 227.779 47.4635 226.744C48.1035 225.709 48.9942 224.909 50.1355 224.344C51.2768 223.768 52.5995 223.48 54.1035 223.48C54.8928 223.48 55.5968 223.565 56.2155 223.736C56.8448 223.896 57.3728 224.083 57.7995 224.296C58.2262 224.499 58.5248 224.675 58.6955 224.824L56.4235 228.152C56.3488 228.077 56.2102 227.971 56.0075 227.832C55.8155 227.693 55.5648 227.571 55.2555 227.464C54.9462 227.357 54.5782 227.304 54.1515 227.304C53.6288 227.304 53.1382 227.437 52.6795 227.704C52.2315 227.971 51.8688 228.339 51.5915 228.808C51.3142 229.277 51.1755 229.816 51.1755 230.424C51.1755 231.032 51.3142 231.576 51.5915 232.056C51.8688 232.525 52.2315 232.893 52.6795 233.16C53.1382 233.427 53.6288 233.56 54.1515 233.56ZM64.5285 231.464C64.5605 231.933 64.7098 232.349 64.9765 232.712C65.2432 233.075 65.6112 233.363 66.0805 233.576C66.5605 233.779 67.1258 233.88 67.7765 233.88C68.3952 233.88 68.9498 233.816 69.4405 233.688C69.9418 233.56 70.3738 233.4 70.7365 233.208C71.1098 233.016 71.3978 232.819 71.6005 232.616L73.4885 235.624C73.2218 235.912 72.8432 236.195 72.3525 236.472C71.8725 236.739 71.2378 236.957 70.4485 237.128C69.6592 237.299 68.6618 237.384 67.4565 237.384C66.0058 237.384 64.7152 237.112 63.5845 236.568C62.4538 236.024 61.5632 235.224 60.9125 234.168C60.2618 233.112 59.9365 231.821 59.9365 230.296C59.9365 229.016 60.2138 227.864 60.7685 226.84C61.3338 225.805 62.1498 224.989 63.2165 224.392C64.2832 223.784 65.5685 223.48 67.0725 223.48C68.5018 223.48 69.7392 223.741 70.7845 224.264C71.8405 224.787 72.6512 225.565 73.2165 226.6C73.7925 227.624 74.0805 228.904 74.0805 230.44C74.0805 230.525 74.0752 230.696 74.0645 230.952C74.0645 231.208 74.0538 231.379 74.0325 231.464H64.5285ZM69.5045 228.92C69.4938 228.579 69.4032 228.243 69.2325 227.912C69.0618 227.571 68.8058 227.293 68.4645 227.08C68.1232 226.856 67.6858 226.744 67.1525 226.744C66.6192 226.744 66.1658 226.851 65.7925 227.064C65.4298 227.267 65.1525 227.533 64.9605 227.864C64.7685 228.195 64.6618 228.547 64.6405 228.92H69.5045ZM75.474 223.864H77.714V218.472H82.53V223.864H85.474V227.864H82.53V231.528C82.53 232.072 82.61 232.515 82.77 232.856C82.93 233.187 83.2233 233.352 83.65 233.352C83.938 233.352 84.1833 233.288 84.386 233.16C84.5887 233.032 84.7113 232.947 84.754 232.904L86.418 236.36C86.3433 236.424 86.1087 236.541 85.714 236.712C85.33 236.883 84.8393 237.037 84.242 237.176C83.6447 237.315 82.978 237.384 82.242 237.384C80.93 237.384 79.8473 237.016 78.994 236.28C78.1407 235.533 77.714 234.387 77.714 232.84V227.864H75.474V223.864ZM92.667 237H87.803V223.864H92.667V225.896H92.587C92.6723 225.651 92.8803 225.341 93.211 224.968C93.5417 224.584 94.0057 224.243 94.603 223.944C95.2003 223.635 95.931 223.48 96.795 223.48C97.403 223.48 97.963 223.576 98.475 223.768C98.987 223.949 99.3603 224.125 99.595 224.296L97.707 228.248C97.5577 228.067 97.291 227.88 96.907 227.688C96.5337 227.485 96.0643 227.384 95.499 227.384C94.8483 227.384 94.3097 227.549 93.883 227.88C93.467 228.211 93.1577 228.611 92.955 229.08C92.763 229.549 92.667 229.992 92.667 230.408V237ZM110.755 237V234.872C110.659 235.085 110.413 235.395 110.019 235.8C109.635 236.205 109.123 236.573 108.483 236.904C107.843 237.224 107.096 237.384 106.243 237.384C104.963 237.384 103.843 237.075 102.883 236.456C101.923 235.827 101.176 234.989 100.643 233.944C100.109 232.888 99.8428 231.72 99.8428 230.44C99.8428 229.16 100.109 227.997 100.643 226.952C101.176 225.896 101.923 225.053 102.883 224.424C103.843 223.795 104.963 223.48 106.243 223.48C107.064 223.48 107.784 223.613 108.403 223.88C109.021 224.136 109.523 224.445 109.907 224.808C110.291 225.16 110.557 225.485 110.707 225.784V223.864H115.539V237H110.755ZM104.611 230.44C104.611 231.037 104.749 231.576 105.027 232.056C105.304 232.525 105.672 232.893 106.131 233.16C106.6 233.427 107.117 233.56 107.683 233.56C108.269 233.56 108.787 233.427 109.235 233.16C109.683 232.893 110.035 232.525 110.291 232.056C110.557 231.576 110.691 231.037 110.691 230.44C110.691 229.843 110.557 229.309 110.291 228.84C110.035 228.36 109.683 227.987 109.235 227.72C108.787 227.443 108.269 227.304 107.683 227.304C107.117 227.304 106.6 227.443 106.131 227.72C105.672 227.987 105.304 228.36 105.027 228.84C104.749 229.309 104.611 229.843 104.611 230.44ZM125.745 233.56C126.353 233.56 126.855 233.459 127.249 233.256C127.644 233.043 127.911 232.872 128.049 232.744L130.273 236.04C130.103 236.179 129.809 236.36 129.393 236.584C128.977 236.797 128.455 236.984 127.825 237.144C127.207 237.304 126.497 237.384 125.697 237.384C124.193 237.384 122.871 237.101 121.729 236.536C120.588 235.96 119.697 235.149 119.057 234.104C118.428 233.059 118.113 231.832 118.113 230.424C118.113 229.005 118.428 227.779 119.057 226.744C119.697 225.709 120.588 224.909 121.729 224.344C122.871 223.768 124.193 223.48 125.697 223.48C126.487 223.48 127.191 223.565 127.809 223.736C128.439 223.896 128.967 224.083 129.393 224.296C129.82 224.499 130.119 224.675 130.289 224.824L128.017 228.152C127.943 228.077 127.804 227.971 127.601 227.832C127.409 227.693 127.159 227.571 126.849 227.464C126.54 227.357 126.172 227.304 125.745 227.304C125.223 227.304 124.732 227.437 124.273 227.704C123.825 227.971 123.463 228.339 123.185 228.808C122.908 229.277 122.769 229.816 122.769 230.424C122.769 231.032 122.908 231.576 123.185 232.056C123.463 232.525 123.825 232.893 124.273 233.16C124.732 233.427 125.223 233.56 125.745 233.56ZM141.21 223.864H146.714L140.522 230.136L147.354 237H141.722L136.65 231.72V237H131.786V214.984H136.65V228.44L141.21 223.864Z" fill="#231F20"/>
<defs>
<linearGradient id="paint0_linear_2635_875" x1="31.8726" y1="189.073" x2="116.451" y2="189.073" gradientUnits="userSpaceOnUse">
<stop stop-color="#650A34"/>
<stop offset="1" stop-color="#A61D51"/>
</linearGradient>
<linearGradient id="paint1_linear_2635_875" x1="6" y1="94.5366" x2="142.323" y2="94.5366" gradientUnits="userSpaceOnUse">
<stop stop-color="#650A34"/>
<stop offset="1" stop-color="#A61D51"/>
</linearGradient>
<linearGradient id="paint2_linear_2635_875" x1="78.3987" y1="66.8746" x2="94.4299" y2="84.5186" gradientUnits="userSpaceOnUse">
<stop stop-color="#650A34"/>
<stop offset="1" stop-color="#A61D51"/>
</linearGradient>
<linearGradient id="paint3_linear_2635_875" x1="58.0098" y1="90.5013" x2="70.0816" y2="93.9027" gradientUnits="userSpaceOnUse">
<stop stop-color="#650A34"/>
<stop offset="1" stop-color="#A61D51"/>
</linearGradient>
<linearGradient id="paint4_linear_2635_875" x1="70.4822" y1="45.2717" x2="72.6885" y2="74.9291" gradientUnits="userSpaceOnUse">
<stop stop-color="#650A34"/>
<stop offset="1" stop-color="#A61D51"/>
</linearGradient>
<linearGradient id="paint5_linear_2635_875" x1="51.3111" y1="73.3853" x2="50.4898" y2="81.5556" gradientUnits="userSpaceOnUse">
<stop stop-color="#650A34"/>
<stop offset="1" stop-color="#A61D51"/>
</linearGradient>
</defs>
</svg>
