<svg width="21" height="21" viewBox="0 0 21 21" fill="none" xmlns="http://www.w3.org/2000/svg">
<path d="M20.3437 4.59373C20.3447 3.69376 20.0606 2.81659 19.5323 2.088C19.004 1.35941 18.2586 0.816822 17.4029 0.538026C16.5472 0.259231 15.6252 0.25855 14.7691 0.536082C13.913 0.813615 13.1667 1.35511 12.6373 2.08291C11.7349 1.79063 10.7923 1.64139 9.84368 1.6406C8.05463 1.64077 6.30455 2.16327 4.80824 3.14397C3.31194 4.12468 2.13451 5.52091 1.42049 7.1613C0.706463 8.80169 0.486905 10.6149 0.788763 12.3783C1.09062 14.1417 1.90076 15.7786 3.11974 17.0881L0.752321 19.4555C0.706446 19.5014 0.675206 19.5598 0.662551 19.6235C0.649896 19.6871 0.656394 19.7531 0.681223 19.813C0.706052 19.873 0.748098 19.9242 0.802045 19.9603C0.855992 19.9963 0.919418 20.0156 0.984305 20.0156H9.84368C12.2795 20.0128 14.6148 19.044 16.3372 17.3216C18.0595 15.5992 19.0284 13.2639 19.0312 10.8281C19.0304 9.87951 18.8811 8.93689 18.5889 8.03445C19.1319 7.63984 19.5739 7.12245 19.8788 6.5245C20.1838 5.92654 20.3431 5.26496 20.3437 4.59373ZM18.3749 10.8281C18.3723 13.0899 17.4727 15.2584 15.8733 16.8577C14.274 18.4571 12.1055 19.3567 9.84368 19.3594H1.7764L3.81077 17.325C3.87229 17.2634 3.90684 17.18 3.90684 17.093C3.90684 17.006 3.87229 16.9225 3.81077 16.861C2.46277 15.5208 1.60155 13.7684 1.36408 11.8824C1.12661 9.99641 1.52652 8.08518 2.50022 6.45263C3.47392 4.82008 4.96549 3.55995 6.73775 2.87263C8.51 2.18531 10.4612 2.11027 12.281 2.65943C11.8698 3.46135 11.7236 4.37306 11.8635 5.26335C12.0034 6.15364 12.4221 6.97659 13.0595 7.61375C13.6968 8.25091 14.5199 8.66943 15.4102 8.80906C16.3005 8.94869 17.2122 8.80224 18.014 8.39079C18.2527 9.18124 18.3743 10.0024 18.3749 10.8281ZM16.0781 8.2031C15.3642 8.2031 14.6664 7.99142 14.0728 7.59481C13.4792 7.19821 13.0166 6.6345 12.7434 5.97497C12.4702 5.31545 12.3988 4.58972 12.538 3.88957C12.6773 3.18942 13.0211 2.54629 13.5258 2.04151C14.0306 1.53673 14.6738 1.19297 15.3739 1.0537C16.0741 0.914436 16.7998 0.985914 17.4593 1.2591C18.1188 1.53228 18.6825 1.99491 19.0791 2.58847C19.4757 3.18202 19.6874 3.87986 19.6874 4.59373C19.6863 5.55065 19.3057 6.46805 18.629 7.14469C17.9524 7.82134 17.035 8.20197 16.0781 8.2031Z" fill="#686973"/>
<path d="M17.7188 4.26562H16.4062V2.95312C16.4062 2.8661 16.3717 2.78264 16.3101 2.72111C16.2486 2.65957 16.1651 2.625 16.0781 2.625C15.9911 2.625 15.9076 2.65957 15.8461 2.72111C15.7846 2.78264 15.75 2.8661 15.75 2.95312V4.26562H14.4375C14.3505 4.26562 14.267 4.3002 14.2055 4.36173C14.1439 4.42327 14.1094 4.50673 14.1094 4.59375C14.1094 4.68077 14.1439 4.76423 14.2055 4.82577C14.267 4.8873 14.3505 4.92188 14.4375 4.92188H15.75V6.23438C15.75 6.3214 15.7846 6.40486 15.8461 6.46639C15.9076 6.52793 15.9911 6.5625 16.0781 6.5625C16.1651 6.5625 16.2486 6.52793 16.3101 6.46639C16.3717 6.40486 16.4062 6.3214 16.4062 6.23438V4.92188H17.7188C17.8058 4.92188 17.8892 4.8873 17.9508 4.82577C18.0123 4.76423 18.0469 4.68077 18.0469 4.59375C18.0469 4.50673 18.0123 4.42327 17.9508 4.36173C17.8892 4.3002 17.8058 4.26562 17.7188 4.26562Z" fill="#686973"/>
<path d="M11.2511 10.7435C11.7309 10.4387 12.0988 9.98653 12.2995 9.45481C12.5003 8.92308 12.5231 8.34056 12.3644 7.79479C12.2057 7.24902 11.8742 6.76949 11.4197 6.42828C10.9651 6.08706 10.4121 5.90259 9.84375 5.90259C9.27539 5.90259 8.72237 6.08706 8.26783 6.42828C7.81329 6.76949 7.48177 7.24902 7.32311 7.79479C7.16444 8.34056 7.1872 8.92308 7.38796 9.45481C7.58873 9.98653 7.95664 10.4387 8.43642 10.7435C7.60226 11.0355 6.87931 11.5793 6.36734 12.2998C5.85537 13.0202 5.57961 13.8818 5.57812 14.7656V15.4219C5.57812 15.5089 5.61269 15.5923 5.67423 15.6539C5.73577 15.7154 5.81923 15.75 5.90625 15.75H13.7812C13.8683 15.75 13.9517 15.7154 14.0133 15.6539C14.0748 15.5923 14.1094 15.5089 14.1094 15.4219V14.7656C14.1079 13.8818 13.8321 13.0202 13.3202 12.2998C12.8082 11.5793 12.0852 11.0355 11.2511 10.7435ZM7.875 8.53123C7.875 8.14185 7.99047 7.76121 8.20679 7.43745C8.42312 7.11369 8.7306 6.86135 9.09034 6.71234C9.45008 6.56333 9.84593 6.52435 10.2278 6.60031C10.6097 6.67628 10.9605 6.86378 11.2359 7.13912C11.5112 7.41445 11.6987 7.76525 11.7747 8.14715C11.8506 8.52905 11.8116 8.9249 11.6626 9.28464C11.5136 9.64438 11.2613 9.95186 10.9375 10.1682C10.6138 10.3845 10.2331 10.5 9.84375 10.5C9.32176 10.4995 8.82131 10.2919 8.45221 9.92277C8.08311 9.55367 7.87552 9.05322 7.875 8.53123ZM13.4531 15.0937H6.23438V14.7656C6.23438 13.8083 6.61465 12.8903 7.29154 12.2134C7.96843 11.5365 8.88648 11.1562 9.84375 11.1562C10.801 11.1562 11.7191 11.5365 12.396 12.2134C13.0729 12.8903 13.4531 13.8083 13.4531 14.7656V15.0937Z" fill="#686973"/>
</svg>
