<svg width="21" height="21" viewBox="0 0 21 21" fill="none" xmlns="http://www.w3.org/2000/svg">
<g clip-path="url(#clip0_2635_966)">
<path d="M7.0001 0C4.10473 0 1.7501 2.35462 1.7501 5.25C1.7501 8.14538 4.10473 10.5 7.0001 10.5C9.89548 10.5 12.2501 8.14538 12.2501 5.25C12.2501 2.35462 9.89548 0 7.0001 0ZM7.0001 9.625C4.58773 9.625 2.6251 7.66237 2.6251 5.25C2.6251 2.83763 4.58773 0.875 7.0001 0.875C9.41248 0.875 11.3751 2.83763 11.3751 5.25C11.3751 7.66237 9.41248 9.625 7.0001 9.625ZM10.4686 13.3604C10.3776 13.5835 10.1221 13.6911 9.89898 13.6019C9.11673 13.286 8.28898 13.125 7.43848 13.125C3.81948 13.125 0.875977 16.0685 0.875977 19.6875V20.5625C0.875977 20.804 0.679977 21 0.438477 21C0.196977 21 0.000976562 20.804 0.000976562 20.5625V19.6875C0.000976562 15.5864 3.33735 12.25 7.43848 12.25C8.40273 12.25 9.34073 12.432 10.2271 12.7908C10.4511 12.8818 10.5596 13.1364 10.4686 13.3604ZM16.6251 20.5625C16.6251 20.804 16.4291 21 16.1876 21H14.4376C13.231 21 12.2501 20.0182 12.2501 18.8125V13.5625C12.2501 12.3567 13.231 11.375 14.4376 11.375H16.1876C16.4291 11.375 16.6251 11.571 16.6251 11.8125C16.6251 12.054 16.4291 12.25 16.1876 12.25H14.4376C13.714 12.25 13.1251 12.8389 13.1251 13.5625V18.8125C13.1251 19.5361 13.714 20.125 14.4376 20.125H16.1876C16.4291 20.125 16.6251 20.321 16.6251 20.5625ZM20.9966 16.2059C20.9966 16.5576 20.8514 16.9216 20.5757 17.1614L18.2272 19.2316C18.0461 19.3909 17.7696 19.3751 17.6095 19.1931C17.4494 19.012 17.4669 18.7355 17.648 18.5754L19.86 16.625H15.3126C15.0711 16.625 14.8751 16.429 14.8751 16.1875C14.8751 15.946 15.0711 15.75 15.3126 15.75H19.7419L17.648 13.9038C17.4669 13.7436 17.4494 13.4671 17.6095 13.286C17.7696 13.104 18.0452 13.0874 18.2272 13.2475L20.5792 15.3212C20.8382 15.5435 20.9966 15.8629 20.9966 16.2059Z" fill="#686973"/>
</g>
<defs>
<clipPath id="clip0_2635_966">
<rect width="21" height="21" fill="white"/>
</clipPath>
</defs>
</svg>
